<?xml version="1.0" encoding="UTF-8"?>
<svg xmlns="http://www.w3.org/2000/svg" width="64" height="64" viewBox="0 0 64 64">
  <rect x="3" y="3" width="58" height="58" rx="14" fill="#EFF6FF"/>
  <path d="M10 44 C18 44 21 31 29 31 C36 31 39 18 53 18" fill="none" stroke="#2563EB" stroke-width="4" stroke-linecap="round"/>
  <g stroke="#344054" stroke-width="2.4" stroke-linecap="round">
    <path d="M11 35V52 M7 41H15"/>
    <path d="M29 22V40 M25 28H33"/>
    <path d="M53 9V27 M49 15H57"/>
  </g>
  <circle cx="11" cy="44" r="3.8" fill="#fff" stroke="#2563EB" stroke-width="2.6"/>
  <circle cx="29" cy="31" r="3.8" fill="#fff" stroke="#2563EB" stroke-width="2.6"/>
  <circle cx="53" cy="18" r="3.8" fill="#fff" stroke="#2563EB" stroke-width="2.6"/>
  <g transform="translate(34 38)">
    <circle cx="9" cy="9" r="8.2" fill="#fff" stroke="#2563EB" stroke-width="2.5"/>
    <path d="M15 15L20 20" stroke="#2563EB" stroke-width="2.8" stroke-linecap="round"/>
    <path d="M6 13V10 M9 13V8 M12 13V5" stroke="#2563EB" stroke-width="2" stroke-linecap="round"/>
    <path d="M5.5 14.5H13.5" stroke="#2563EB" stroke-width="1.8" stroke-linecap="round"/>
  </g>
</svg>